<?xml version="1.0" encoding="UTF-8"?>
<svg width="100pt" height="100pt" version="1.1" viewBox="0 0 100 100" xmlns="http://www.w3.org/2000/svg">
 <defs>
  <clipPath id="b">
   <path d="m18.512 21h52.488v40h-52.488z"/>
  </clipPath>
  <clipPath id="a">
   <path d="m29 39h52.488v40h-52.488z"/>
  </clipPath>
 </defs>
 <path d="m100 50c0 27.613-22.387 50-50 50s-50-22.387-50-50 22.387-50 50-50 50 22.387 50 50z"/>
 <g clip-path="url(#b)">
  <path d="m24.035 33.016v27.488h-4.1133c-0.77734 0-1.4102-0.62891-1.4102-1.4102v-35.469c0-1.1992 0.89453-2.1797 2.125-2.1797h18.172c1.2227 0 2.125 0.97266 2.125 2.1758v2.082h28.098c0.78125 0 1.4102 0.62891 1.4102 1.4062v7.9766h-23.988v-2.0859c0-1.1953-0.89453-2.1719-2.1289-2.1719l-18.164-0.003906c-1.2344 0-2.125 0.98828-2.125 2.1914z" fill="#ff001b"/>
 </g>
 <g clip-path="url(#a)">
  <path d="m80.078 43.754h-28.098v-2.082c0-1.1992-0.89844-2.1758-2.1289-2.1758l-18.168 0.003906c-1.2266 0-2.1211 0.98047-2.1211 2.1758l-0.003906 35.473c0 0.77734 0.62891 1.4062 1.4102 1.4062h49.105c0.78125 0 1.4102-0.625 1.4102-1.4062l0.003906-31.988c0-0.77344-0.62891-1.4062-1.4102-1.4062z" fill="#ff001b"/>
 </g>
</svg>
