<?xml version="1.0" encoding="UTF-8"?>
<svg width="1200pt" height="1200pt" version="1.1" viewBox="0 0 1200 1200" xmlns="http://www.w3.org/2000/svg">
 <defs>
  <clipPath id="b">
   <path d="m222.14 257h623.86v470h-623.86z"/>
  </clipPath>
  <clipPath id="a">
   <path d="m354 473h623.86v470h-623.86z"/>
  </clipPath>
 </defs>
 <path d="m1200 600c0 214.36-114.36 412.44-300 519.62-185.64 107.18-414.36 107.18-600 0-185.64-107.18-300-305.26-300-519.62s114.36-412.44 300-519.62c185.64-107.18 414.36-107.18 600 0 185.64 107.18 300 305.26 300 519.62z"/>
 <g clip-path="url(#b)">
  <path d="m288.41 396.2v329.84h-49.348c-9.3359 0-16.922-7.5195-16.922-16.918v-425.63c0-14.395 10.73-26.141 25.484-26.141h218.08c14.691 0 25.484 11.684 25.484 26.086v25h337.18c9.3789 0 16.914 7.5664 16.914 16.859v95.719l-287.83 0.003906v-25.051c0-14.367-10.73-26.078-25.535-26.078l-217.98-0.003906c-14.805-0.007813-25.527 11.863-25.527 26.312z" fill="#ff001b"/>
 </g>
 <g clip-path="url(#a)">
  <path d="m960.94 525.07h-337.16v-25c0-14.395-10.801-26.086-25.551-26.086l-218.03-0.003906c-14.738 0-25.477 11.742-25.477 26.133v425.66c0 9.3477 7.5352 16.859 16.922 16.859h589.29c9.3789 0 16.922-7.5117 16.922-16.859v-383.85c0.007813-9.2969-7.5352-16.859-16.914-16.859z" fill="#ff001b"/>
 </g>
</svg>
