<?xml version="1.0" encoding="UTF-8"?>
<svg width="3600pt" height="3600pt" version="1.1" viewBox="0 0 3600 3600" xmlns="http://www.w3.org/2000/svg">
 <defs>
  <clipPath id="b">
   <path d="m666.43 772h1869.6v1407h-1869.6z"/>
  </clipPath>
  <clipPath id="a">
   <path d="m1064 1421h1869.6v1407h-1869.6z"/>
  </clipPath>
 </defs>
 <path d="m3600 1800c0 643.08-343.08 1237.3-900 1558.8-556.92 321.54-1243.1 321.54-1800 0-556.92-321.54-900-915.77-900-1558.8s343.08-1237.3 900-1558.8c556.92-321.54 1243.1-321.54 1800 0 556.92 321.54 900 915.77 900 1558.8z"/>
 <g clip-path="url(#b)">
  <path d="m865.23 1188.6v989.52h-148.04c-28 0-50.762-22.555-50.762-50.758v-1276.9c0-43.188 32.195-78.422 76.449-78.422h654.23c44.074 0 76.449 35.051 76.449 78.262v74.996h1011.5c28.137 0 50.738 22.695 50.738 50.578v287.16l-863.47 0.003906v-75.156c0-43.098-32.195-78.238-76.605-78.238h-653.93c-44.414-0.023438-76.586 35.594-76.586 78.941z" fill="#ff001b"/>
 </g>
 <g clip-path="url(#a)">
  <path d="m2882.8 1575.2h-1011.5v-74.996c0-43.188-32.398-78.262-76.652-78.262l-654.09-0.003906c-44.211 0-76.426 35.23-76.426 78.398l0.003906 1277c0 28.043 22.602 50.578 50.762 50.578h1767.9c28.137 0 50.762-22.535 50.762-50.578v-1151.6c0.023438-27.887-22.605-50.578-50.738-50.578z" fill="#ff001b"/>
 </g>
</svg>
