<?xml version="1.0" encoding="UTF-8"?>
<svg width="512pt" height="512pt" version="1.1" viewBox="0 0 512 512" xmlns="http://www.w3.org/2000/svg">
 <defs>
  <clipPath id="b">
   <path d="m94.781 109h266.22v201h-266.22z"/>
  </clipPath>
  <clipPath id="a">
   <path d="m151 202h266.22v201h-266.22z"/>
  </clipPath>
 </defs>
 <path d="m512 256c0 141.39-114.61 256-256 256s-256-114.61-256-256 114.61-256 256-256 256 114.61 256 256z"/>
 <g clip-path="url(#b)">
  <path d="m123.05 169.05v140.73h-21.055c-3.9805 0-7.2188-3.2109-7.2188-7.2188v-181.6c0-6.1445 4.5781-11.152 10.871-11.152h93.047c6.2695 0 10.871 4.9844 10.871 11.129v10.668h143.86c4 0 7.2148 3.2266 7.2148 7.1953v40.84l-122.8-0.003907v-10.688c0-6.1289-4.5781-11.129-10.895-11.129h-93.004c-6.3164 0-10.895 5.0625-10.895 11.23z" fill="#ff001b"/>
 </g>
 <g clip-path="url(#a)">
  <path d="m410 224.03h-143.86v-10.668c0-6.1406-4.6094-11.129-10.902-11.129h-93.027c-6.2891 0-10.871 5.0117-10.871 11.148l0.003906 181.62c0 3.9883 3.2148 7.1953 7.2188 7.1953h251.43c4 0 7.2188-3.2031 7.2188-7.1953l-0.003906-163.78c0.003906-3.9648-3.2148-7.1914-7.2148-7.1914z" fill="#ff001b"/>
 </g>
</svg>
